<svg id="master-artboard" viewBox="0 0 1280 720" xmlns="http://www.w3.org/2000/svg" width="1280px" height="720px" xmlns:xlink="http://www.w3.org/1999/xlink"><defs><clipPath id="clip-path"><path d="M 0 0 H 1280 V 720 H 0 V 0 Z" class="cls-1" style="fill: none;"/></clipPath><linearGradient id="linear-gradient" x1="887.09" y1="121.91" x2="392.91" y2="977.85" gradientUnits="userSpaceOnUse"><stop offset="0" stop-color="#ff0095"/><stop offset="0.25" stop-color="#bd0099"/><stop offset="0.51" stop-color="#80009c"/><stop offset="0.73" stop-color="#54009f"/><stop offset="0.9" stop-color="#3800a0"/><stop offset="1" stop-color="#2e00a1"/></linearGradient><linearGradient id="linear-gradient-2" x1="570.04" y1="-242.33" x2="1136.13" y2="738.18" gradientTransform="matrix(-1, 0, 0, 1, 1613, 0)" gradientUnits="userSpaceOnUse"><stop offset="0" stop-color="#ff0095"/><stop offset="0.33" stop-color="#af009a"/><stop offset="0.65" stop-color="#6a009e"/><stop offset="0.88" stop-color="#3f00a0"/><stop offset="1" stop-color="#2e00a1"/></linearGradient><linearGradient id="linear-gradient-3" x1="1064.54" y1="-348.59" x2="511.02" y2="610.15" xlink:href="#linear-gradient"/><linearGradient id="linear-gradient-4" x1="1079.37" y1="-489.9" x2="614.36" y2="395.63" gradientTransform="matrix(0.89, 0.08, -0.09, 1, 193.04, -60.71)" xlink:href="#linear-gradient"/><linearGradient id="linear-gradient-5" x1="928.44" y1="264.83" x2="394.07" y2="1190.37" xlink:href="#linear-gradient"/><linearGradient id="linear-gradient-6" x1="63.56" y1="97" x2="195.4" y2="97" gradientUnits="userSpaceOnUse"><stop offset="0" stop-color="#ff0095"/><stop offset="1" stop-color="#2e00a1"/></linearGradient></defs><title>abstract-background-website-landing-page</title><g class="cls-2" transform="matrix(1, 0, 0, 1, -14.60177015086083, 11.232130730290194)" style="clip-path: url('#clip-path');"><path d="M 0 348.76001 H 1280 V 751 H 0 V 348.76001 Z" class="cls-3" style="fill: url('#linear-gradient');"/><path class="cls-4" d="M1280,379.48c-170.11,174-374.06,65.33-439.76,34.07-151.35-72-292.67-94.55-469.86,7C34.88,612.76-75.85,384.14-75.85,384.14V145.24h1790.1S1463.94,191.32,1280,379.48Z" style="fill: url('#linear-gradient-2');"/><path class="cls-5" d="M-.47,309.88S194.84,483.64,485,345.4,997,72.76,1230.22,203.32s408.65-33.6,408.65-33.6V-17H-.47Z" style="fill: url('#linear-gradient-3');"/><path class="cls-6" d="M675.24,186.73c271.5-108.53,454.07-212.49,656-70.29,196.27,138.24,383.91-15.56,383.91-15.56l15.75-185.55L201.34-217.75S293.2,339.45,675.24,186.73Z" style="fill: url('#linear-gradient-4');"/><path class="cls-7" d="M1280,467.8s-93.87,289-477.87,121.92S275.91,532.12,136.53,679C17.62,804.32-16.12,816.28-137.48,883.48H1280Z" style="fill: url('#linear-gradient-5');"/></g><path d="M 1097.300049 81.5 H 1167.300049 A 17.5 17.5 0 0 1 1184.800049 99 V 99 A 17.5 17.5 0 0 1 1167.300049 116.5 H 1097.300049 A 17.5 17.5 0 0 1 1079.800049 99 V 99 A 17.5 17.5 0 0 1 1097.300049 81.5 Z" id="button-2" data-name="button" class="cls-9" style="fill: none; stroke-miterlimit: 10; stroke: rgb(255, 0, 149); stroke-width: 1.34px;" transform="matrix(0.9999999999999999, 0, 0, 0.9999999999999999, -2.842170943040401e-14, 0)"/><path id="logo" class="cls-10" d="M116.77,101.65a8.4,8.4,0,1,1-8.4,8.4A8.4,8.4,0,0,1,116.77,101.65ZM94.54,97a8.4,8.4,0,1,0,8.4-8.4A8.41,8.41,0,0,0,94.54,97Zm13.85-13a8.4,8.4,0,1,0,8.4-8.4A8.4,8.4,0,0,0,108.39,84Zm13.89,13a8.4,8.4,0,1,0,8.4-8.4A8.4,8.4,0,0,0,122.28,97Zm39.34-14.32a20.15,20.15,0,0,0-14.28-5.91h0a20.15,20.15,0,0,0-16.5,8.57h0A11.62,11.62,0,0,1,142.4,97h0a11.62,11.62,0,0,1-11.56,11.62h0a20.15,20.15,0,0,0,16.5,8.57h0a20.12,20.12,0,0,0,14.28-5.92h0A20.13,20.13,0,0,0,167.53,97h0a20.15,20.15,0,0,0-5.91-14.28Z" style="fill: url('#linear-gradient-6');" transform="matrix(0.9999999999999999, 0, 0, 0.9999999999999999, -2.842170943040401e-14, 0)"/></svg>